<?xml version="1.0" encoding="utf-8"?>
<!-- Generator: Adobe Illustrator 21.0.0, SVG Export Plug-In . SVG Version: 6.00 Build 0)  -->
<svg version="1.1" id="Layer_1" xmlns="http://www.w3.org/2000/svg" xmlns:xlink="http://www.w3.org/1999/xlink" x="0px" y="0px"
	 viewBox="0 0 333.4 222.6" style="enable-background:new 0 0 333.4 222.6;" xml:space="preserve">
<style type="text/css">
	.st0{fill:#C61D23;}
</style>
<title>Asset 1</title>
<g>
	<g id="LWPOLYLINE_14_">
		<rect x="73.2" y="218.5" class="st0" width="190.2" height="2.7"/>
	</g>
	<g id="MTEXT">
		<g>
			<path class="st0" d="M85.2,204.3l2.3,0.9c-0.5,3-1.3,5.3-2.6,6.8c-1.2,1.6-2.8,2.4-4.6,2.4c-1.9,0-3.4-0.6-4.5-1.8
				c-1.2-1.2-2.1-3-2.7-5.2c-0.6-2.3-0.9-4.7-0.9-7.4c0-2.9,0.3-5.4,1-7.5s1.7-3.7,2.9-4.9s2.7-1.7,4.2-1.7c1.7,0,3.2,0.7,4.4,2.1
				s2,3.4,2.5,5.9l-2.2,0.8c-0.4-2-1-3.5-1.7-4.4c-0.8-0.9-1.7-1.4-2.9-1.4c-1.3,0-2.4,0.5-3.3,1.5s-1.5,2.4-1.9,4.1
				c-0.4,1.7-0.5,3.5-0.5,5.3c0,2.3,0.2,4.4,0.6,6.1c0.4,1.7,1.1,3,2,3.9s1.9,1.3,2.9,1.3c1.3,0,2.4-0.6,3.3-1.8
				C84.3,208.3,84.9,206.6,85.2,204.3z"/>
			<path class="st0" d="M89.6,200.5c0-4.6,0.8-8.1,2.3-10.7s3.5-3.9,6-3.9c1.6,0,3,0.6,4.3,1.8s2.3,2.9,2.9,5.1c0.7,2.2,1,4.6,1,7.4
				c0,2.8-0.4,5.3-1.1,7.5s-1.7,3.9-3,5s-2.7,1.7-4.2,1.7c-1.6,0-3.1-0.6-4.4-1.9c-1.3-1.3-2.2-3-2.9-5.1
				C89.9,205.2,89.6,202.9,89.6,200.5z M91.9,200.6c0,3.3,0.6,5.9,1.7,7.8c1.1,1.9,2.5,2.9,4.2,2.9c1.7,0,3.1-1,4.2-2.9
				c1.1-1.9,1.7-4.7,1.7-8.2c0-2.2-0.2-4.2-0.7-5.9c-0.5-1.7-1.2-3-2.1-3.9c-0.9-0.9-1.9-1.4-3.1-1.4c-1.6,0-3,0.9-4.2,2.7
				C92.5,193.5,91.9,196.4,91.9,200.6z"/>
			<path class="st0" d="M109,213.9v-27.5h2.3l9.1,21.6v-21.6h2.2v27.5h-2.3l-9.1-21.6v21.6H109z"/>
			<path class="st0" d="M125.7,205.1l2.2-0.3c0.1,1.4,0.3,2.5,0.7,3.4s1,1.6,1.7,2.1c0.8,0.5,1.7,0.8,2.6,0.8c0.9,0,1.6-0.2,2.3-0.6
				c0.7-0.4,1.2-1,1.5-1.7c0.3-0.7,0.5-1.5,0.5-2.4c0-0.9-0.2-1.6-0.5-2.3s-0.8-1.2-1.6-1.6c-0.5-0.3-1.5-0.7-3.1-1.3
				c-1.6-0.6-2.7-1.2-3.3-1.7c-0.8-0.7-1.4-1.5-1.8-2.6s-0.6-2.2-0.6-3.4c0-1.4,0.2-2.7,0.7-3.9s1.2-2.1,2.2-2.7
				c0.9-0.6,2-0.9,3.2-0.9c1.3,0,2.4,0.3,3.4,1c1,0.7,1.7,1.6,2.3,2.9s0.8,2.7,0.8,4.3l-2.2,0.3c-0.1-1.7-0.5-3-1.2-3.9
				c-0.7-0.9-1.7-1.3-3-1.3c-1.4,0-2.4,0.4-3,1.2c-0.6,0.8-0.9,1.8-0.9,2.9c0,1,0.2,1.8,0.7,2.4c0.4,0.6,1.6,1.3,3.4,2
				c1.9,0.7,3.1,1.3,3.8,1.8c1,0.7,1.7,1.7,2.2,2.8c0.5,1.1,0.7,2.4,0.7,3.9c0,1.5-0.3,2.8-0.8,4.1c-0.5,1.3-1.3,2.3-2.3,3
				c-1,0.7-2.1,1.1-3.3,1.1c-1.6,0-2.9-0.4-3.9-1.1c-1.1-0.7-1.9-1.8-2.5-3.3C126,208.6,125.7,206.9,125.7,205.1z"/>
			<path class="st0" d="M146.9,213.9v-24.2h-5.7v-3.2h13.7v3.2h-5.7v24.2H146.9z"/>
			<path class="st0" d="M157.3,213.9v-27.5h7.7c1.5,0,2.7,0.2,3.5,0.7c0.8,0.5,1.4,1.4,1.9,2.6s0.7,2.6,0.7,4.1
				c0,1.9-0.4,3.6-1.2,4.9s-2,2.2-3.7,2.5c0.6,0.5,1.1,0.9,1.4,1.4c0.7,1,1.3,2.2,1.9,3.7l3,7.5h-2.9l-2.3-5.7
				c-0.7-1.6-1.2-2.9-1.6-3.8c-0.4-0.9-0.8-1.5-1.2-1.8c-0.3-0.3-0.7-0.6-1-0.7c-0.3-0.1-0.7-0.1-1.3-0.1h-2.6v12.2H157.3z
				 M159.6,198.6h4.9c1,0,1.9-0.2,2.4-0.5s1-0.9,1.3-1.6c0.3-0.8,0.5-1.6,0.5-2.5c0-1.3-0.3-2.4-0.9-3.2c-0.6-0.8-1.5-1.3-2.8-1.3
				h-5.5V198.6z"/>
			<path class="st0" d="M186,186.4h2.3v15.9c0,2.8-0.2,5-0.6,6.6c-0.4,1.6-1.1,2.9-2.1,4s-2.4,1.5-4,1.5c-1.6,0-2.9-0.4-4-1.3
				c-1-0.9-1.8-2.2-2.2-3.9c-0.4-1.7-0.7-4-0.7-6.9v-15.9h2.3v15.9c0,2.4,0.1,4.1,0.4,5.3c0.3,1.1,0.8,2,1.4,2.6
				c0.7,0.6,1.5,0.9,2.5,0.9c1.7,0,2.9-0.6,3.6-1.8c0.7-1.2,1.1-3.5,1.1-7V186.4z"/>
			<path class="st0" d="M204.4,204.3l2.3,0.9c-0.5,3-1.3,5.3-2.6,6.8c-1.2,1.6-2.8,2.4-4.6,2.4c-1.9,0-3.4-0.6-4.5-1.8
				c-1.2-1.2-2.1-3-2.7-5.2c-0.6-2.3-0.9-4.7-0.9-7.4c0-2.9,0.3-5.4,1-7.5s1.7-3.7,2.9-4.9c1.3-1.1,2.7-1.7,4.2-1.7
				c1.7,0,3.2,0.7,4.4,2.1s2,3.4,2.5,5.9l-2.2,0.8c-0.4-2-1-3.5-1.7-4.4c-0.8-0.9-1.7-1.4-2.9-1.4c-1.3,0-2.4,0.5-3.3,1.5
				c-0.9,1-1.5,2.4-1.9,4.1c-0.4,1.7-0.5,3.5-0.5,5.3c0,2.3,0.2,4.4,0.6,6.1s1.1,3,2,3.9c0.9,0.9,1.9,1.3,2.9,1.3
				c1.3,0,2.4-0.6,3.3-1.8C203.5,208.3,204.1,206.6,204.4,204.3z"/>
			<path class="st0" d="M213.9,213.9v-24.2h-5.7v-3.2h13.7v3.2h-5.7v24.2H213.9z"/>
			<path class="st0" d="M224.6,213.9v-27.5h2.3v27.5H224.6z"/>
			<path class="st0" d="M230.3,200.5c0-4.6,0.8-8.1,2.3-10.7c1.5-2.6,3.5-3.9,6-3.9c1.6,0,3,0.6,4.3,1.8s2.3,2.9,2.9,5.1
				c0.7,2.2,1,4.6,1,7.4c0,2.8-0.4,5.3-1.1,7.5c-0.7,2.2-1.7,3.9-3,5c-1.3,1.1-2.7,1.7-4.2,1.7c-1.6,0-3.1-0.6-4.4-1.9
				c-1.3-1.3-2.2-3-2.9-5.1C230.6,205.2,230.3,202.9,230.3,200.5z M232.6,200.6c0,3.3,0.6,5.9,1.7,7.8c1.1,1.9,2.5,2.9,4.2,2.9
				c1.7,0,3.1-1,4.2-2.9c1.1-1.9,1.7-4.7,1.7-8.2c0-2.2-0.2-4.2-0.7-5.9c-0.5-1.7-1.2-3-2.1-3.9c-0.9-0.9-1.9-1.4-3.1-1.4
				c-1.6,0-3,0.9-4.2,2.7C233.2,193.5,232.6,196.4,232.6,200.6z"/>
			<path class="st0" d="M249.7,213.9v-27.5h2.3l9.1,21.6v-21.6h2.2v27.5H261l-9.1-21.6v21.6H249.7z"/>
		</g>
	</g>
	<g id="XMLID_1_">
		<rect id="XMLID_20_" x="133.1" y="3.8" class="st0" width="27.5" height="163.7"/>
		
			<rect id="XMLID_19_" x="160.4" y="-14" transform="matrix(6.123234e-17 -1 1 6.123234e-17 156.6876 191.6646)" class="st0" width="27.5" height="63"/>
		<path id="XMLID_18_" class="st0" d="M133.1,140v27.5H73c-0.7-0.1-1.4-0.2-2.1-0.4c-38.4-7.2-67.4-41-67.4-81.5
			C3.5,44.8,33,10.9,71.7,4c0.5-0.1,1-0.2,1.6-0.3h46.2v27.5H74.9c-25.2,5.3-44.1,27.7-44.1,54.4c0,26.7,18.8,49,43.9,54.4H133.1z"
			/>
		<path id="XMLID_17_" class="st0" d="M331,140v27.5h-53.3c-0.7-0.1-1.4-0.2-2.1-0.4c-38.4-7.2-67.4-41-67.4-81.5
			c0-40.8,29.4-74.7,68.2-81.6c0.5-0.1,1-0.2,1.6-0.3h53v27.5h-51.5c-25.2,5.3-44.1,27.7-44.1,54.4c0,26.7,18.8,49,43.9,54.4H331z"
			/>
		<path id="XMLID_16_" class="st0" d="M174,140v27.5h32.9c0.7-0.1,1.4-0.2,2.1-0.4c38.4-7.2,67.4-41,67.4-81.5
			c0-40.8-29.4-74.7-68.2-81.6c-0.5-0.1-1-0.2-1.6-0.3h-46.2v27.5h44.6c25.2,5.3,44.1,27.7,44.1,54.4c0,26.7-18.8,49-43.9,54.4H174z
			"/>
		<rect id="XMLID_15_" x="133.1" y="140" class="st0" width="8.1" height="27.5"/>
		<g id="XMLID_2_">
			<g id="XMLID_11_">
				<path id="XMLID_12_" class="st0" d="M317.4,99.3c-7.5,0-13.6-6.1-13.6-13.6c0-7.5,6.1-13.6,13.6-13.6c7.5,0,13.6,6.1,13.6,13.6
					C331,93.2,324.9,99.3,317.4,99.3z M317.4,73.7c-6.6,0-12,5.4-12,12c0,6.6,5.4,12,12,12c6.6,0,12-5.4,12-12
					C329.3,79,324,73.7,317.4,73.7z"/>
			</g>
			<g id="XMLID_3_">
				<g>
					<path id="XMLID_39_" class="st0" d="M313.3,92.6V78.6h4.8c1.2,0,2.2,0.1,2.8,0.4c0.6,0.3,1.2,0.7,1.5,1.3
						c0.4,0.6,0.6,1.3,0.6,2.1c0,1-0.3,1.8-1,2.5c-0.6,0.7-1.6,1.1-3,1.3c0.5,0.2,0.9,0.5,1.1,0.7c0.5,0.5,1,1.1,1.5,1.9l2.4,3.8
						h-2.3l-1.8-2.9c-0.5-0.8-1-1.5-1.3-1.9c-0.3-0.4-0.7-0.8-0.9-0.9c-0.3-0.2-0.6-0.3-0.8-0.4c-0.2,0-0.6-0.1-1-0.1h-0.8v6.2
						H313.3z M315.1,84.8h2.6c0.8,0,1.5-0.1,2-0.3c0.5-0.2,0.8-0.5,1.1-0.8c0.2-0.4,0.4-0.8,0.4-1.2c0-0.7-0.2-1.2-0.7-1.6
						c-0.5-0.4-1.2-0.6-2.3-0.6h-3.1V84.8z"/>
				</g>
			</g>
		</g>
	</g>
</g>
</svg>
